<svg width="32" height="32" viewBox="0 0 32 32" fill="none" xmlns="http://www.w3.org/2000/svg">
<path d="M16 27C22.0751 27 27 22.0752 27 16C27 9.9249 22.0751 5.00003 16 5.00003C9.92487 5.00003 5 9.9249 5 16C5 22.0752 9.92487 27 16 27Z" fill="#3C5A9A"/>
<path d="M19.5763 8.37598H17.1395C15.6934 8.37598 14.085 8.98417 14.085 11.0803C14.0921 11.8107 14.085 12.5101 14.085 13.2974H12.4121V15.9594H14.1368V23.6231H17.3059V15.9089H19.3977L19.5869 13.2899H17.2513C17.2513 13.2899 17.2566 12.1249 17.2513 11.7865C17.2513 10.9582 18.1132 11.0056 18.1651 11.0056C18.5752 11.0056 19.3727 11.0068 19.5775 11.0056V8.37598H19.5763Z" fill="white"/>
</svg>
