<svg width="32" height="32" viewBox="0 0 32 32" fill="none" xmlns="http://www.w3.org/2000/svg">
<g clip-path="url(#clip0_12090_10507)">
<g filter="url(#filter0_d_12090_10507)">
<path d="M16 27C22.0751 27 27 22.0751 27 16C27 9.92487 22.0751 5 16 5C9.92487 5 5 9.92487 5 16C5 22.0751 9.92487 27 16 27Z" fill="#3C5A9A"/>
</g>
<path d="M19.5763 8.37598H17.1395C15.6934 8.37598 14.085 8.98417 14.085 11.0803C14.0921 11.8107 14.085 12.5101 14.085 13.2974H12.4121V15.9594H14.1368V23.6231H17.3059V15.9089H19.3977L19.5869 13.2899H17.2513C17.2513 13.2899 17.2566 12.1249 17.2513 11.7865C17.2513 10.9582 18.1132 11.0056 18.1651 11.0056C18.5752 11.0056 19.3727 11.0068 19.5775 11.0056V8.37598H19.5763Z" fill="white"/>
</g>
<defs>
<filter id="filter0_d_12090_10507" x="1" y="5" width="30" height="30" filterUnits="userSpaceOnUse" color-interpolation-filters="sRGB">
<feFlood flood-opacity="0" result="BackgroundImageFix"/>
<feColorMatrix in="SourceAlpha" type="matrix" values="0 0 0 0 0 0 0 0 0 0 0 0 0 0 0 0 0 0 127 0" result="hardAlpha"/>
<feOffset dy="4"/>
<feGaussianBlur stdDeviation="2"/>
<feComposite in2="hardAlpha" operator="out"/>
<feColorMatrix type="matrix" values="0 0 0 0 0 0 0 0 0 0 0 0 0 0 0 0 0 0 0.25 0"/>
<feBlend mode="normal" in2="BackgroundImageFix" result="effect1_dropShadow_12090_10507"/>
<feBlend mode="normal" in="SourceGraphic" in2="effect1_dropShadow_12090_10507" result="shape"/>
</filter>
<clipPath id="clip0_12090_10507">
<rect width="32" height="32" fill="white"/>
</clipPath>
</defs>
</svg>
