<svg width="393" height="54" viewBox="0 0 393 54" fill="none" xmlns="http://www.w3.org/2000/svg">
<path d="M59.6616 23.2231C60.3035 23.2231 60.9123 23.3421 61.4878 23.5801C62.0633 23.8125 62.5724 24.1777 63.0151 24.6758C63.4634 25.1683 63.8148 25.8019 64.0693 26.5767C64.3239 27.3459 64.4512 28.2728 64.4512 29.3574V29.374C64.4512 30.7188 64.2575 31.8698 63.8701 32.8271C63.4827 33.7845 62.9266 34.5205 62.2016 35.0352C61.4822 35.5443 60.6217 35.7988 59.6201 35.7988C58.8841 35.7988 58.22 35.666 57.6279 35.4004C57.0413 35.1292 56.5543 34.7585 56.167 34.2881C55.7851 33.8122 55.5278 33.2699 55.395 32.6611L55.3784 32.5698H57.4785L57.5117 32.6528C57.6168 32.9295 57.7663 33.173 57.9599 33.3833C58.1592 33.5936 58.3971 33.7568 58.6738 33.873C58.956 33.9837 59.2715 34.0391 59.6201 34.0391C60.251 34.0391 60.7656 33.8537 61.164 33.4829C61.568 33.1066 61.8696 32.6058 62.0688 31.9805C62.2736 31.3496 62.3898 30.6523 62.4175 29.8887C62.423 29.8057 62.4258 29.7254 62.4258 29.6479C62.4258 29.5649 62.4258 29.4847 62.4258 29.4072L62.0522 27.4067C62.0522 26.953 61.9471 26.5407 61.7368 26.1699C61.5265 25.7992 61.2415 25.5059 60.8818 25.29C60.5277 25.0742 60.1264 24.9663 59.6782 24.9663C59.2466 24.9663 58.8509 25.0715 58.4912 25.2817C58.1315 25.492 57.8437 25.7798 57.6279 26.145C57.4121 26.5047 57.3042 26.9087 57.3042 27.3569V27.3735C57.3042 27.8384 57.4066 28.2507 57.6113 28.6104C57.8161 28.9645 58.0955 29.244 58.4497 29.4487C58.8039 29.6535 59.2078 29.7559 59.6616 29.7559C60.1154 29.7559 60.5221 29.6562 60.8818 29.457C61.2415 29.2578 61.5265 28.9811 61.7368 28.627C61.9471 28.2728 62.0522 27.8716 62.0522 27.4233V27.4067H62.5503V29.6147H62.2597C62.1159 29.9302 61.9028 30.2235 61.6206 30.4946C61.3384 30.7658 60.9897 30.9844 60.5747 31.1504C60.1652 31.3164 59.6837 31.3994 59.1304 31.3994C58.3667 31.3994 57.6915 31.2279 57.105 30.8848C56.5184 30.5417 56.0563 30.0713 55.7187 29.4736C55.3867 28.876 55.2207 28.2008 55.2207 27.4482V27.4316C55.2207 26.6182 55.4088 25.896 55.7851 25.2651C56.167 24.6287 56.6927 24.1307 57.3623 23.771C58.0374 23.4058 58.8039 23.2231 59.6616 23.2231ZM67.7897 33.8896C67.4134 33.8896 67.098 33.7651 66.8434 33.5161C66.5944 33.2616 66.4699 32.9517 66.4699 32.5864C66.4699 32.2157 66.5944 31.9058 66.8434 31.6567C67.098 31.4022 67.4134 31.2749 67.7897 31.2749C68.1715 31.2749 68.487 31.4022 68.736 31.6567C68.985 31.9058 69.1095 32.2157 69.1095 32.5864C69.1095 32.9517 68.985 33.2616 68.736 33.5161C68.487 33.7651 68.1715 33.8896 67.7897 33.8896ZM67.7897 27.7305C67.4134 27.7305 67.098 27.606 66.8434 27.3569C66.5944 27.1024 66.4699 26.7925 66.4699 26.4272C66.4699 26.0565 66.5944 25.7466 66.8434 25.4976C67.098 25.243 67.4134 25.1157 67.7897 25.1157C68.1715 25.1157 68.487 25.243 68.736 25.4976C68.985 25.7466 69.1095 26.0565 69.1095 26.4272C69.1095 26.7925 68.985 27.1024 68.736 27.3569C68.487 27.606 68.1715 27.7305 67.7897 27.7305ZM76.9388 35.5V33.2007H71.0785V31.4492C71.3939 30.9124 71.7093 30.3729 72.0247 29.8306C72.3457 29.2882 72.6694 28.7487 72.9959 28.2119C73.328 27.6696 73.6572 27.1356 73.9837 26.6099C74.3158 26.0786 74.645 25.5557 74.9715 25.041C75.3036 24.5208 75.6356 24.0145 75.9676 23.522H78.9808V31.4326H80.5995V33.2007H78.9808V35.5H76.9388ZM73.0706 31.4824H76.972V25.2319H76.8475C76.604 25.6082 76.3522 25.9956 76.0921 26.394C75.8376 26.7925 75.5802 27.1992 75.3202 27.6143C75.0601 28.0293 74.8027 28.4471 74.5482 28.8677C74.2936 29.2827 74.0418 29.7005 73.7928 30.1211C73.5438 30.5361 73.3031 30.9484 73.0706 31.3579V31.4824ZM85.125 35.5V25.6304H84.9756L81.9956 27.7305V25.7217L85.125 23.522H87.2583V35.5H85.125Z" fill="black"/>
<rect x="133.5" y="11" width="126" height="37" rx="18.5" fill="black"/>
<g clip-path="url(#clip0_11836_19904)">
<path opacity="0.2" d="M299.565 34.6392H301.304C301.759 34.6392 302.062 34.3215 302.062 33.8524V32.3506C302.062 31.8814 301.759 31.571 301.304 31.571H299.565C299.11 31.571 298.807 31.8814 298.807 32.3506V33.8524C298.807 34.3215 299.11 34.6392 299.565 34.6392Z" fill="black"/>
<path d="M299.567 34.6393H301.321C301.769 34.6393 302.072 34.3216 302.072 33.8525V22.8954C302.072 22.4262 301.769 22.1086 301.321 22.1086H299.567C299.12 22.1086 298.81 22.4262 298.81 22.8954V33.8525C298.81 34.3216 299.12 34.6393 299.567 34.6393Z" fill="black"/>
<path opacity="0.2" d="M294.164 34.6392H295.904C296.358 34.6392 296.662 34.3215 296.662 33.8524V32.3506C296.662 31.8814 296.358 31.571 295.904 31.571H294.164C293.709 31.571 293.406 31.8814 293.406 32.3506V33.8524C293.406 34.3215 293.709 34.6392 294.164 34.6392Z" fill="black"/>
<path d="M294.168 34.6392H295.908C296.355 34.6392 296.665 34.3215 296.665 33.8524V25.7465C296.665 25.2773 296.355 24.9597 295.908 24.9597H294.168C293.713 24.9597 293.41 25.2773 293.41 25.7465V33.8524C293.41 34.3215 293.713 34.6392 294.168 34.6392Z" fill="black"/>
<path opacity="0.2" d="M288.765 34.6392H290.504C290.959 34.6392 291.262 34.3215 291.262 33.8524V32.3506C291.262 31.8814 290.959 31.571 290.504 31.571H288.765C288.31 31.571 288.007 31.8814 288.007 32.3506V33.8524C288.007 34.3215 288.31 34.6392 288.765 34.6392Z" fill="black"/>
<path d="M288.762 34.6393H290.501C290.956 34.6393 291.259 34.3216 291.259 33.8525V28.3595C291.259 27.8904 290.956 27.5728 290.501 27.5728H288.762C288.307 27.5728 288.004 27.8904 288.004 28.3595V33.8525C288.004 34.3216 288.307 34.6393 288.762 34.6393Z" fill="black"/>
<path opacity="0.2" d="M283.356 34.6392H285.095C285.55 34.6392 285.853 34.3215 285.853 33.8524V32.3506C285.853 31.8814 285.55 31.571 285.095 31.571H283.356C282.901 31.571 282.598 31.8814 282.598 32.3506V33.8524C282.598 34.3215 282.901 34.6392 283.356 34.6392Z" fill="black"/>
<path d="M283.356 34.6393H285.095C285.55 34.6393 285.853 34.3216 285.853 33.8525V30.6116C285.853 30.1424 285.55 29.832 285.095 29.832H283.356C282.901 29.832 282.598 30.1424 282.598 30.6116V33.8525C282.598 34.3216 282.901 34.6393 283.356 34.6393Z" fill="black"/>
</g>
<g clip-path="url(#clip1_11836_19904)">
<path d="M317.385 34.982C317.544 34.982 317.681 34.9099 317.963 34.6356L319.724 32.9466C319.832 32.8383 319.861 32.6794 319.76 32.5495C319.291 31.9432 318.403 31.4163 317.385 31.4163C316.339 31.4163 315.451 31.9649 314.982 32.5928C314.909 32.7084 314.938 32.8383 315.054 32.9466L316.808 34.6356C317.089 34.9026 317.226 34.982 317.385 34.982ZM313.163 31.0554C313.321 31.207 313.516 31.1853 313.661 31.0265C314.527 30.0665 315.942 29.3664 317.385 29.3736C318.843 29.3664 320.258 30.0882 321.139 31.0482C321.269 31.1998 321.449 31.1925 321.608 31.0482L322.727 29.9366C322.842 29.8211 322.857 29.6623 322.748 29.5324C321.658 28.197 319.637 27.1937 317.385 27.1937C315.133 27.1937 313.112 28.197 312.022 29.5324C311.914 29.6623 311.921 29.8067 312.044 29.9366L313.163 31.0554ZM310.167 28.0382C310.312 28.1754 310.514 28.1754 310.651 28.031C312.426 26.1471 314.765 25.151 317.385 25.151C320.02 25.151 322.373 26.1543 324.134 28.0382C324.264 28.1682 324.459 28.161 324.603 28.0238L325.599 27.0277C325.729 26.8978 325.722 26.739 325.621 26.6163C323.925 24.523 320.734 22.9856 317.385 22.9856C314.043 22.9856 310.838 24.523 309.149 26.6163C309.048 26.739 309.048 26.8978 309.171 27.0277L310.167 28.0382Z" fill="black"/>
</g>
<g clip-path="url(#clip2_11836_19904)">
<path opacity="0.4" d="M337.747 35.1128H352.252C353.945 35.1128 355.154 34.9228 356.017 34.0598C356.883 33.1967 357.061 32.0093 357.061 30.3106V27.7948C357.061 26.0961 356.883 24.9029 356.017 24.0428C355.151 23.1798 353.945 22.9927 352.252 22.9927H337.694C336.067 22.9927 334.855 23.1827 333.992 24.0486C333.126 24.9116 332.945 26.1084 332.945 27.7349V30.3106C332.945 32.0093 333.123 33.1996 333.986 34.0598C334.855 34.9228 336.058 35.1128 337.747 35.1128ZM337.501 33.9564C336.4 33.9564 335.408 33.7821 334.833 33.213C334.267 32.6374 334.102 31.6611 334.102 30.557V27.5989C334.102 26.4502 334.267 25.4623 334.83 24.8867C335.406 24.3082 336.412 24.1462 337.558 24.1462H352.505C353.606 24.1462 354.597 24.3233 355.164 24.8896C355.739 25.4652 355.904 26.435 355.904 27.539V30.557C355.904 31.6611 355.736 32.6374 355.164 33.213C354.597 33.7851 353.606 33.9564 352.505 33.9564H337.501ZM358.143 31.3269C358.834 31.2831 359.769 30.3918 359.769 29.0495C359.769 27.7107 358.834 26.8194 358.143 26.7756V31.3269Z" fill="black"/>
<path d="M337.174 32.9973H352.841C353.679 32.9973 354.178 32.8663 354.494 32.5497C354.811 32.2302 354.948 31.7291 354.948 30.8906V27.2119C354.948 26.3676 354.811 25.8723 354.497 25.5528C354.178 25.2392 353.674 25.1052 352.841 25.1052H337.234C336.339 25.1052 335.823 25.2363 335.519 25.5499C335.205 25.8694 335.067 26.3856 335.067 27.2653V30.8906C335.067 31.7378 335.205 32.2302 335.519 32.5497C335.838 32.8633 336.342 32.9973 337.174 32.9973Z" fill="black"/>
</g>
<defs>
<clipPath id="clip0_11836_19904">
<rect width="19.4743" height="12.5378" fill="white" transform="translate(282.598 22.1086)"/>
</clipPath>
<clipPath id="clip1_11836_19904">
<rect width="16.6208" height="12.0037" fill="white" transform="translate(309.076 22.9783)"/>
</clipPath>
<clipPath id="clip2_11836_19904">
<rect width="26.8242" height="12.1346" fill="white" transform="translate(332.945 22.9783)"/>
</clipPath>
</defs>
</svg>
