<svg width="36" height="36" viewBox="0 0 36 36" fill="none" xmlns="http://www.w3.org/2000/svg">
<path d="M12.6899 19.0649L21.1799 27.5399C21.3193 27.6805 21.4853 27.7921 21.668 27.8683C21.8508 27.9444 22.0469 27.9836 22.2449 27.9836C22.4429 27.9836 22.639 27.9444 22.8218 27.8683C23.0046 27.7921 23.1705 27.6805 23.3099 27.5399C23.5893 27.2589 23.7461 26.8787 23.7461 26.4824C23.7461 26.0862 23.5893 25.706 23.3099 25.4249L15.8849 17.9249L23.3099 10.4999C23.5893 10.2189 23.7461 9.83873 23.7461 9.44245C23.7461 9.04617 23.5893 8.66599 23.3099 8.38495C23.171 8.24322 23.0053 8.13046 22.8225 8.05321C22.6397 7.97597 22.4434 7.93577 22.2449 7.93495C22.0464 7.93577 21.8501 7.97597 21.6673 8.05321C21.4845 8.13046 21.3188 8.24322 21.1799 8.38495L12.6899 16.8599C12.5377 17.0004 12.4161 17.1709 12.333 17.3606C12.2499 17.5504 12.207 17.7553 12.207 17.9624C12.207 18.1696 12.2499 18.3745 12.333 18.5643C12.4161 18.754 12.5376 18.9245 12.6899 19.0649Z" fill="#212121"/>
</svg>
