<svg width="32" height="32" viewBox="0 0 32 32" fill="none" xmlns="http://www.w3.org/2000/svg">
<path d="M25.5328 16.1873C25.5328 15.3679 25.4664 14.77 25.3225 14.1499H15.9658V17.8482H21.458C21.3473 18.7673 20.7493 20.1514 19.4206 21.0815L19.4019 21.2053L22.3603 23.4972L22.5653 23.5176C24.4477 21.7791 25.5328 19.2213 25.5328 16.1873Z" fill="#4285F4"/>
<path d="M15.9652 25.9312C18.6559 25.9312 20.9147 25.0453 22.5646 23.5173L19.4199 21.0812C18.5784 21.6681 17.4489 22.0777 15.9652 22.0777C13.3298 22.0777 11.0931 20.3393 10.2958 17.9365L10.1789 17.9464L7.10273 20.3271L7.0625 20.439C8.70128 23.6944 12.0675 25.9312 15.9652 25.9312Z" fill="#34A853"/>
<path d="M10.2963 17.9368C10.0859 17.3167 9.96412 16.6523 9.96412 15.9658C9.96412 15.2793 10.0859 14.6149 10.2852 13.9948L10.2796 13.8628L7.16489 11.4438L7.06298 11.4923C6.38756 12.8432 6 14.3603 6 15.9658C6 17.5714 6.38756 19.0884 7.06298 20.4393L10.2963 17.9368Z" fill="#FBBC05"/>
<path d="M15.9652 9.85336C17.8365 9.85336 19.0988 10.6617 19.8185 11.3372L22.631 8.59107C20.9037 6.9855 18.6559 6 15.9652 6C12.0675 6 8.70128 8.23672 7.0625 11.4921L10.2847 13.9947C11.0931 11.5918 13.3298 9.85336 15.9652 9.85336Z" fill="#EB4335"/>
</svg>
